# xmcd
#
# Track frame offsets:
#        150
#        1029
#        18936
#        29118
#        43420
#        57085
#        70137
#        87429
#        100868
#        114700
#        124157
#        137244
#        152034
#        209888
#
# Disc length: 4026 seconds
#
# Revision: 0
# Processed by: cddbd v1.5.1PL0 Copyright (c) Steve Scherf et al.
# Submitted via: ExactAudioCopy v0.95a5
#
DISCID=c90fb80e
DTITLE=The Offspring - Americana
DYEAR=1900
DGENRE=Rock
TTITLE0=Welcome
TTITLE1=Have You Ever
TTITLE2=Staring At The Sun
TTITLE3=Pretty Fly (For A White Guy)
TTITLE4=The Kids Aren't Alright
TTITLE5=Feelings
TTITLE6=She's Got Issues
TTITLE7=Walla Walla
TTITLE8=The End Of The Line
TTITLE9=No Brakes
TTITLE10=Why Don't You Get A Job?
TTITLE11=Americana
TTITLE12=Pay The Man
TTITLE13=14
EXTD=
EXTT0=
EXTT1=
EXTT2=
EXTT3=
EXTT4=
EXTT5=
EXTT6=
EXTT7=
EXTT8=
EXTT9=
EXTT10=
EXTT11=
EXTT12=
EXTT13=
PLAYORDER=
